<svg width="80" height="80" viewBox="0 0 80 80" fill="none" xmlns="http://www.w3.org/2000/svg">
<path d="M80 40C80 17.9086 62.0914 0 40 0C17.9086 0 0 17.9086 0 40C0 62.0914 17.9086 80 40 80C62.0914 80 80 62.0914 80 40Z" fill="white"/>
<path d="M38.6566 51.5911C36.397 51.5911 34.5657 49.7597 34.5657 47.5002V42.0456C34.5657 39.786 36.397 37.9547 38.6566 37.9547C39.4789 37.9465 46.8384 36.591 46.8384 31.1364C46.8384 28.4092 44.1112 25.6819 40.0202 25.6819C36.6916 25.6819 34.5657 28.4092 34.5657 29.7728C34.5657 32.0324 32.7343 33.8637 30.4747 33.8637C28.2152 33.8637 26.3838 32.0324 26.3838 29.7728C26.3838 23.1209 32.6293 17.5 40.0202 17.5C50.9294 17.5 55.0203 25.6573 55.0203 32.5001C55.0203 38.1524 51.9153 42.4724 46.2753 44.6638C45.048 45.1424 43.8343 45.4642 42.7475 45.6824V47.5002C42.7475 49.7597 40.9161 51.5911 38.6566 51.5911Z" fill="#8EA4B4"/>
<path d="M38.6564 62.4992C40.9157 62.4992 42.7473 60.6677 42.7473 58.4083C42.7473 56.149 40.9157 54.3174 38.6564 54.3174C36.397 54.3174 34.5654 56.149 34.5654 58.4083C34.5654 60.6677 36.397 62.4992 38.6564 62.4992Z" fill="#8EA4B4"/>
</svg>
