<svg width="136" height="144" viewBox="0 0 136 144" fill="none" xmlns="http://www.w3.org/2000/svg">
<g clip-path="url(#clip0_2_11)">
<path d="M78.6666 30.9059C74.9838 30.9059 71.9997 33.8899 71.9997 37.5726V37.5859L65.3331 24.2393C61.6506 24.2393 58.6665 27.2233 58.6665 30.9059V34.3326L51.9999 30.2393C48.3171 30.2393 45.3333 33.2233 45.3333 36.9059V46.3325L42.6666 70.9994H78.7785L78.6666 30.9059Z" fill="#EF9645"/>
<path d="M107.667 66.2507C103.984 64.6214 98.7231 66.8054 95.0004 72.0854C92.5551 75.5519 91.8351 80.4881 88.6242 81.0026C87.3978 81.1973 85.3338 80.168 85.3338 77.2772V35C85.3338 35 85.3338 29.6667 80.0004 29.6667C74.667 29.6667 74.667 35 74.667 35V66.0212C74.667 65.9441 72.0003 65.8508 72.0003 65.8028V28.3333C72.0003 28.3333 72.0003 23 66.6669 23C61.3338 23 61.3338 28.3333 61.3338 28.3333V65.8079C61.3338 65.8532 58.6671 65.9174 58.6671 65.9921V34.3333C58.6671 34.3333 58.6671 29 53.3337 29C48.0003 29 48.0003 34.3333 48.0003 34.3333V68.0348C48.0003 68.3492 45.3336 68.7041 45.3336 69.0959V46.3334C45.3336 46.3334 45.3336 41 40.0002 41C34.6671 41 34.6671 46.3334 34.6671 46.3334V86.9999C34.6671 104.672 48.9951 119 66.6669 119C79.4004 119 88.1604 112.072 93.0564 104.888C97.2084 98.7947 98.4138 92.4668 98.667 90.5546C98.667 90.5546 98.9949 86.6108 101.75 82.9148C105.667 77.6639 108.416 74.4986 110.083 72.6053C110.928 71.6507 111.75 68.0561 107.667 66.2507Z" fill="#FFDC5D"/>
<path d="M86.5041 80.2562C85.7121 79.547 85.512 78.7841 85.392 78.1016C80.3466 78.7922 73.5066 80.2055 68.2533 85.3415C61.4373 92.0057 60.2748 99.2081 60.3306 104.027C60.3762 107.912 62.496 109.752 63.1173 103.995C63.8961 96.779 69.1281 82.4936 86.5413 81.1148C86.616 81.1097 87.5733 81.0509 88.1175 81.0215C88.1175 81.0215 87.1788 80.8616 86.5041 80.2562Z" fill="#EF9645"/>
</g>
<defs>
<clipPath id="clip0_2_11">
<rect width="136" height="144" fill="white"/>
</clipPath>
</defs>
</svg>
