<svg width="144" height="144" viewBox="0 0 144 144" fill="none" xmlns="http://www.w3.org/2000/svg">
<g clip-path="url(#clip0_2_6)">
<path d="M95.9798 58.859C93.8006 56.9853 90.7657 56.1835 87.7792 56.9837L86.8131 57.2426C86.8131 57.2426 73.536 49.0558 73.7112 48.1414C71.8997 49.8504 71.0359 52.4526 71.726 55.0278C71.726 55.0278 59.3073 51.2514 59.5465 50.1189C57.8895 51.9956 57.179 54.83 57.9441 57.6855L58.2143 58.6939C58.2143 58.6939 46.8504 58.374 47.1943 57.3088C45.3747 59.0179 44.5059 61.6257 45.1975 64.2068L46.1738 67.8501L37.8293 83.0724L39.1985 88.1824L79.8232 107.194C79.8238 107.196 93.7116 57.5806 95.9798 58.859Z" fill="#EF9645"/>
<path d="M45.865 88.9214C48.7127 88.1584 50.7242 85.8991 51.3602 83.2189C53.2975 85.2096 56.2005 86.152 59.0751 85.3818L59.2217 85.3425C61.4493 84.7457 63.148 83.2348 64.131 81.3396C64.1632 81.2813 64.2296 81.1433 64.2296 81.1433C64.4772 80.6381 64.6605 80.1004 64.7992 79.5517C64.839 79.392 65.0205 78.2066 65.0287 77.7656C65.0394 77.4043 65.0552 77.046 65.0152 76.68C65.374 76.9295 65.7521 77.1431 66.1421 77.3306C66.3059 77.4088 67.1869 77.7526 67.4686 77.8302C68.788 78.2034 70.2138 78.254 71.6374 77.8726L77.7538 76.2337C76.8599 77.0323 76.1417 77.9372 75.5206 78.9027C72.9919 82.8268 72.6527 88.1296 74.5048 95.0416C74.6477 95.5748 75.1965 95.8915 75.7297 95.7486C76.2629 95.6057 76.5796 95.0572 76.4368 94.524C74.3858 86.8698 75.061 81.5851 78.7293 78.043C80.6621 76.1771 83.41 74.7867 87.0592 73.809C87.1733 73.7784 88.0583 73.4726 88.0583 73.4726C88.5915 73.3297 88.9082 72.7812 88.7653 72.248C88.6224 71.7148 88.0739 71.3981 87.5407 71.541L71.1181 75.9414C67.9169 76.7991 64.6273 74.8996 63.7696 71.6987C62.9119 68.4976 64.8111 65.208 68.0123 64.3503L89.2626 58.6563C91.1423 58.1526 93.7115 57.58 95.9797 58.8584C96.7722 59.3045 97.5276 59.9677 98.2025 60.9484L104.24 70.6608C104.806 71.569 107.129 75.8023 107.181 76.8008C110.981 90.9805 98.1242 110.228 78.2185 115.562C58.9468 120.728 44.456 107.804 39.3179 88.6281L39.1994 88.1859C39.2239 88.1998 39.2482 88.2057 39.2728 88.2199C41.4312 89.4678 43.3651 89.5913 45.386 89.0498L45.865 88.9214Z" fill="#FFDC5D"/>
<path d="M38.6338 63.943L39.1572 63.8028C42.2155 62.9833 45.356 64.7982 46.1744 67.8524L49.4211 79.9692C50.2399 83.0252 48.4271 86.1655 45.3708 86.9844L44.8455 87.1252C41.7892 87.9441 38.6488 86.131 37.83 83.075L34.5833 70.9583C33.7649 67.904 35.5775 64.7619 38.6338 63.943ZM62.8737 76.0829C63.3349 77.8042 62.9799 79.5392 62.0707 80.9217C61.2912 82.1077 60.1089 83.0354 58.6311 83.4314C55.4299 84.2891 52.1404 82.3899 51.2826 79.1887L46.6239 61.8021C46.2015 60.2257 46.4532 58.6301 47.1949 57.3111C47.9576 55.9536 49.2417 54.8889 50.8665 54.4536C54.0677 53.5958 57.3572 55.4951 58.215 58.6962L62.8737 76.0829ZM67.4954 62.4212C65.1751 63.0429 63.3958 64.64 62.4142 66.6401L59.1117 54.315C58.7192 52.8504 58.9253 51.3789 59.5466 50.1192C60.2843 48.6233 61.6156 47.4324 63.3543 46.9665C66.5552 46.1088 69.845 48.008 70.7028 51.2091L73.2909 60.8683L67.4954 62.4212ZM73.1485 52.6099C72.7281 51.041 72.9787 49.4564 73.7114 48.1419C74.473 46.7803 75.7541 45.7125 77.3809 45.2766L77.4078 45.2693C80.6016 44.4154 83.8839 46.3107 84.7396 49.504L86.8137 57.2449L75.2226 60.3507L73.1485 52.6099Z" fill="#FFDC5D"/>
</g>
<defs>
<clipPath id="clip0_2_6">
<rect width="144" height="144" fill="white"/>
</clipPath>
</defs>
</svg>
